<?xml version="1.0" encoding="utf-8"?>
<!-- Generator: Adobe Illustrator 18.1.1, SVG Export Plug-In . SVG Version: 6.00 Build 0)  -->
<svg version="1.1" id="linkedin-icon" xmlns="http://www.w3.org/2000/svg" xmlns:xlink="http://www.w3.org/1999/xlink" x="0px"
	 y="0px" viewBox="0 0 612 792" enable-background="new 0 0 612 792" xml:space="preserve">
<circle fill="#CC3333" cx="306" cy="396" r="293.8"/>
<path fill="#FFFFFF" d="M407.6,243H204.4c-28.3,0-51.4,23.1-51.4,51.4v203.2c0,28.3,23.1,51.4,51.4,51.4h203.2
	c28.3,0,51.4-23.1,51.4-51.4V294.4C459,266.1,435.9,243,407.6,243L407.6,243z M267.8,491.6h-38.2V357.8h38.2V491.6z M248.6,338.6
	c-10.6,0-19.1-8.6-19.1-19.1s8.6-19.1,19.1-19.1c10.6,0,19.1,8.6,19.1,19.1S259.2,338.6,248.6,338.6z M401.6,491.6h-38.2v-76.5
	c0-10.6-8.6-19.1-19.1-19.1c-10.6,0-19.1,8.6-19.1,19.1v76.5h-38.2V357.8h38.2v23.7c7.9-10.8,19.9-23.7,33.5-23.7
	c23.8,0,43,21.4,43,47.8L401.6,491.6L401.6,491.6z"/>
</svg>
