<?xml version="1.0" encoding="utf-8"?>
<!-- Generator: Adobe Illustrator 18.1.1, SVG Export Plug-In . SVG Version: 6.00 Build 0)  -->
<svg version="1.1" id="mail-icon" xmlns="http://www.w3.org/2000/svg" xmlns:xlink="http://www.w3.org/1999/xlink" x="0px" y="0px"
	 viewBox="0 0 612 792" enable-background="new 0 0 612 792" xml:space="preserve">
<circle fill="#CC3333" cx="306" cy="396" r="293.8"/>
<path fill="#FFFFFF" d="M306,243c-84.5,0-153,68.5-153,153s68.5,153,153,153s153-68.5,153-153S390.5,243,306,243z M229.5,319.5h153
	c2.7,0,5.4,0.6,7.8,1.7L306,419.6l-84.3-98.4C224.1,320.1,226.8,319.5,229.5,319.5L229.5,319.5z M210.4,453.4V338.6
	c0-0.4,0-0.8,0-1.2l56.1,65.4L211,458.3C210.6,456.7,210.4,455.1,210.4,453.4L210.4,453.4z M382.5,472.5h-153
	c-1.7,0-3.3-0.2-4.9-0.7l54.4-54.4l27,31.5l27-31.5l54.4,54.4C385.8,472.3,384.2,472.5,382.5,472.5L382.5,472.5z M401.6,453.4
	c0,1.7-0.2,3.3-0.7,4.9l-55.5-55.5l56.1-65.4c0,0.4,0,0.8,0,1.2L401.6,453.4L401.6,453.4z"/>
</svg>
