<?xml version="1.0" encoding="utf-8"?>
<!-- Generator: Adobe Illustrator 20.0.0, SVG Export Plug-In . SVG Version: 6.00 Build 0)  -->
<svg version="1.1" id="Layer_1" xmlns="http://www.w3.org/2000/svg" xmlns:xlink="http://www.w3.org/1999/xlink" x="0px" y="0px"
	 viewBox="0 0 100 125" style="enable-background:new 0 0 100 125;" xml:space="preserve">
<style type="text/css">
	.st0{fill:none;stroke:#000000;stroke-linejoin:round;stroke-miterlimit:10;}
	.st1{display:none;enable-background:new    ;}
	.st2{font-family:'HelveticaNeue-Bold';}
	.st3{font-size:5px;}
</style>
<g>
	<g>
		<polygon class="st0" points="19,11.2 19,88.8 81,88.8 81,24.5 67.7,11.2 		"/>
		<polygon class="st0" points="67.7,11.2 81,24.5 67.7,24.5 		"/>
	</g>
</g>
<g>
	<g>
		<path d="M30.7,54.4h1.9v1.9h-1.9V54.4z"/>
		<path d="M34.9,54.8h1.6v-9.9h-1.6v-1.4h5.9c0.8,0,1.5,0.1,2.2,0.3c1.3,0.6,2.2,1.9,2.2,3.6c0,1.8-0.9,3.2-2.4,3.7
			c-0.6,0.2-1.2,0.3-1.9,0.3h-2.6v3.4h1.6v1.4h-5V54.8z M40.6,50c0.6,0,1-0.1,1.4-0.3c0.8-0.4,1.3-1.2,1.3-2.3c0-1-0.4-1.8-1.1-2.2
			c-0.4-0.2-0.9-0.3-1.5-0.3h-2.4v5L40.6,50L40.6,50z"/>
		<path d="M46.6,54.8h1.6v-9.9h-1.6v-1.4H52c1.1,0,1.9,0.1,2.7,0.3c2.4,0.8,4,3,4,6c0,3.1-1.5,5.2-4,6c-0.8,0.3-1.7,0.3-2.7,0.3
			h-5.4V54.8z M52,54.8c0.8,0,1.5-0.1,2.2-0.3c1.7-0.6,2.8-2.2,2.8-4.6c0-2.3-1.1-4-2.8-4.6C53.4,45.1,52.8,45,52,45H50v9.8L52,54.8
			L52,54.8z"/>
		<path d="M60.5,54.8h1.6v-9.9h-1.6v-1.4h8.8v3h-1.6v-1.5h-3.9v4.2h4.4v1.5h-4.4v4.1h1.7v1.4h-5.1V54.8z"/>
	</g>
</g>
<text transform="matrix(1 0 0 1 0 115)" class="st1 st2 st3">Created by Linseed Studio</text>
<text transform="matrix(1 0 0 1 0 120)" class="st1 st2 st3">from the Noun Project</text>
</svg>
