<?xml version="1.0" encoding="utf-8"?>
<!-- Generator: Adobe Illustrator 18.1.1, SVG Export Plug-In . SVG Version: 6.00 Build 0)  -->
<svg version="1.1" id="twitter-icon" xmlns="http://www.w3.org/2000/svg" xmlns:xlink="http://www.w3.org/1999/xlink" x="0px"
	 y="0px" viewBox="0 0 612 792" enable-background="new 0 0 612 792" xml:space="preserve">
<circle fill="#CC3333" cx="306" cy="396" r="293.8"/>
<path fill="#FFFFFF" d="M459,300.2c-11.3,5-23.4,8.4-36.1,9.9c13-7.8,22.9-20.2,27.6-34.9c-12.1,7.2-25.6,12.5-39.9,15.3
	c-11.5-12.3-27.8-19.9-45.8-19.9c-34.7,0-62.8,28.3-62.8,63.1c0,4.9,0.6,9.8,1.6,14.4c-52.2-2.6-98.4-27.8-129.4-66
	c-5.4,9.3-8.5,20.2-8.5,31.7c0,21.9,11.1,41.2,27.9,52.6c-10.3-0.3-20-3.2-28.4-7.9c0,0.3,0,0.5,0,0.8c0,30.6,21.6,56.1,50.4,61.9
	c-5.3,1.4-10.8,2.2-16.5,2.2c-4,0-8-0.4-11.8-1.1c8,25.1,31.2,43.3,58.6,43.9c-21.5,16.9-48.6,27-78,27c-5.1,0-10.1-0.3-15-0.9
	c27.8,17.9,60.8,28.4,96.2,28.4c115.5,0,178.6-96.2,178.6-179.7c0-2.7-0.1-5.5-0.2-8.2C439.9,324,450.6,312.8,459,300.2z"/>
</svg>
